<svg id="Capa_1" data-name="Capa 1" xmlns="http://www.w3.org/2000/svg" viewBox="0 0 38.8 59.74"><defs><style>.cls-1{fill:#ffeb3b;}</style></defs><title>stretching</title><path class="cls-1" d="M46,30.93A39.55,39.55,0,0,0,38.55,8.63a8.71,8.71,0,0,0-1.46-1.54,17.75,17.75,0,0,0-6.4-6.2,6.35,6.35,0,0,0-9.52,4.16c-1,4.15-.24,9.25-.29,13.46q0,4.16-.09,8.31A30,30,0,0,1,29.23,26q0-4.2.1-8.4a27.25,27.25,0,0,1,3.8,10.66c-7.4-1.31-14.84-.4-21.18,4.17-3.49,2.52-.13,8.38,3.4,5.83C21.26,34,27.8,33.67,34.68,35.49a3.55,3.55,0,0,0,1,.11C39.42,38.46,46.22,36.93,46,30.93Z" transform="translate(-10.47 0)"/><path class="cls-1" d="M20.66,37.56q-.1,9-.21,18.1c-.06,5.44,8.38,5.44,8.44,0l-.15-19.58A18.47,18.47,0,0,0,20.66,37.56Z" transform="translate(-10.47 0)"/><path class="cls-1" d="M42.53,38.09a6.75,6.75,0,1,0,6.74,6.75A6.75,6.75,0,0,0,42.53,38.09Z" transform="translate(-10.47 0)"/></svg>